<svg width="1166" height="1000" viewBox="0 0 1166 1000" fill="none" xmlns="http://www.w3.org/2000/svg">
<path opacity="0.1" d="M1362.75 505.233C1362.75 749.013 1128.74 947.047 839.536 947.047C550.329 947.047 316.327 749.013 316.327 505.233C316.327 261.453 550.329 63.4188 839.536 63.4188C1128.74 63.4188 1362.75 261.453 1362.75 505.233Z" stroke="#2B3F6C" stroke-width="3"/>
<path opacity="0.1" d="M1499.17 505.233C1499.17 812.67 1204.09 1062.31 839.537 1062.31C474.984 1062.31 179.903 812.67 179.903 505.233C179.903 197.795 474.984 -51.8428 839.537 -51.8428C1204.09 -51.8428 1499.17 197.795 1499.17 505.233Z" stroke="#2B3F6C" stroke-width="3"/>
<path opacity="0.1" d="M1803.5 487.5C1803.5 907.562 1400.36 1248.5 902.5 1248.5C404.645 1248.5 1.5 907.562 1.5 487.5C1.5 67.4384 404.645 -273.5 902.5 -273.5C1400.36 -273.5 1803.5 67.4384 1803.5 487.5Z" stroke="#2B3F6C" stroke-width="3"/>
</svg>
